<?xml version="1.0" encoding="UTF-8"?>
<svg version="1.1" xmlns="http://www.w3.org/2000/svg" width="512" height="512">
<path d="M0 0 C1.25039062 -0.02449219 2.50078125 -0.04898437 3.7890625 -0.07421875 C12.10668651 -0.10059599 18.28853476 0.44309793 24.34375 6.453125 C24.8078125 7.16984375 25.271875 7.8865625 25.75 8.625 C26.2346875 9.33140625 26.719375 10.0378125 27.21875 10.765625 C28.25 13.375 28.25 13.375 28.25 21.375 C52.01 21.375 75.77 21.375 100.25 21.375 C100.58 18.405 100.91 15.435 101.25 12.375 C104.47342991 6.27350766 108.72699429 2.55967157 115.25 0.375 C119.67862296 -0.06575113 124.11407826 0.00473993 128.5625 0 C129.76068359 -0.02449219 130.95886719 -0.04898437 132.19335938 -0.07421875 C140.49567646 -0.10166443 146.39213131 0.62139804 152.5625 6.625 C157.31535976 14.37040109 157.70627999 21.15008409 157.68359375 30.0546875 C157.6888356 31.2626297 157.69407745 32.4705719 157.69947815 33.71511841 C157.70588091 36.2617313 157.70458409 38.80837384 157.69604492 41.35498047 C157.68754237 45.2306846 157.71631226 49.10491019 157.74804688 52.98046875 C157.74965938 55.46354123 157.74908042 57.94661629 157.74609375 60.4296875 C157.75732773 61.57790985 157.76856171 62.7261322 157.78013611 63.90914917 C157.71192696 71.867908 156.73656629 79.51367803 151.21484375 85.62890625 C150.54582031 86.06074219 149.87679687 86.49257813 149.1875 86.9375 C148.51589844 87.39253906 147.84429687 87.84757812 147.15234375 88.31640625 C141.45710041 91.4856279 134.89436028 90.67953924 128.5625 90.75 C127.30759766 90.78738281 126.05269531 90.82476562 124.75976562 90.86328125 C117.25908823 90.93437772 111.97417301 90.47921965 106.25 85.375 C101.88338941 80.8934786 100.25 76.61464155 100.25 70.375 C76.49 70.375 52.73 70.375 28.25 70.375 C28.25 72.685 28.25 74.995 28.25 77.375 C27.21875 79.88671875 27.21875 79.88671875 25.75 82.0625 C25.2859375 82.78824219 24.821875 83.51398438 24.34375 84.26171875 C19.41021232 89.24127824 14.54057178 90.60141051 7.58984375 90.90625 C5.1223964 90.91680028 2.65477695 90.90585703 0.1875 90.875 C-1.05322266 90.89046875 -2.29394531 90.9059375 -3.57226562 90.921875 C-11.57213649 90.88763264 -16.39811447 90.26879232 -22.45703125 84.84765625 C-26.43712272 79.77057844 -27.99291139 75.86388304 -28.04052734 69.42651367 C-28.05328705 68.25146774 -28.06604675 67.07642181 -28.07919312 65.86576843 C-28.08253159 63.97348259 -28.08253159 63.97348259 -28.0859375 62.04296875 C-28.0925943 60.73725418 -28.0992511 59.43153961 -28.10610962 58.08625793 C-28.11806192 55.32496841 -28.12179266 52.56380379 -28.12060547 49.80249023 C-28.12040259 46.28201824 -28.1476803 42.76235631 -28.18214989 39.24207592 C-28.20987804 35.86319616 -28.20857109 32.48446061 -28.2109375 29.10546875 C-28.22530853 27.85001755 -28.23967957 26.59456635 -28.25448608 25.30107117 C-28.21511835 17.72278304 -27.7981667 11.60458267 -22.30258179 5.86271667 C-15.19845066 -0.37265078 -9.11848114 0.00928562 0 0 Z M-10.75 18.375 C-10.8487517 20.05755235 -10.87798904 21.74424028 -10.87939453 23.4296875 C-10.88254669 24.50750488 -10.88569885 25.58532227 -10.88894653 26.69580078 C-10.8869223 27.86868652 -10.88489807 29.04157227 -10.8828125 30.25 C-10.88376923 31.4447998 -10.88472595 32.63959961 -10.88571167 33.87060547 C-10.88639371 36.4026698 -10.88453778 38.93473588 -10.88037109 41.46679688 C-10.87502321 45.3581126 -10.88031533 49.24931289 -10.88671875 53.140625 C-10.88605797 55.59375026 -10.88477682 58.04687544 -10.8828125 60.5 C-10.88483673 61.67288574 -10.88686096 62.84577148 -10.88894653 64.05419922 C-10.88579437 65.1320166 -10.88264221 66.20983398 -10.87939453 67.3203125 C-10.87859894 68.27437988 -10.87780334 69.22844727 -10.87698364 70.21142578 C-10.99160848 72.35487889 -10.99160848 72.35487889 -9.75 73.375 C-8.27347336 73.47380797 -6.79232764 73.50579245 -5.3125 73.5078125 C-3.97058594 73.50974609 -3.97058594 73.50974609 -2.6015625 73.51171875 C-1.19003906 73.50591797 -1.19003906 73.50591797 0.25 73.5 C1.19101563 73.50386719 2.13203125 73.50773437 3.1015625 73.51171875 C3.99617188 73.51042969 4.89078125 73.50914062 5.8125 73.5078125 C7.05193359 73.50612061 7.05193359 73.50612061 8.31640625 73.50439453 C10.25679039 73.58764807 10.25679039 73.58764807 11.25 72.375 C11.3487517 70.69244765 11.37798904 69.00575972 11.37939453 67.3203125 C11.38254669 66.24249512 11.38569885 65.16467773 11.38894653 64.05419922 C11.3869223 62.88131348 11.38489807 61.70842773 11.3828125 60.5 C11.38376923 59.3052002 11.38472595 58.11040039 11.38571167 56.87939453 C11.38639371 54.3473302 11.38453778 51.81526412 11.38037109 49.28320312 C11.37502321 45.3918874 11.38031533 41.50068711 11.38671875 37.609375 C11.38605797 35.15624974 11.38477682 32.70312456 11.3828125 30.25 C11.38483673 29.07711426 11.38686096 27.90422852 11.38894653 26.69580078 C11.38579437 25.6179834 11.38264221 24.54016602 11.37939453 23.4296875 C11.37859894 22.47562012 11.37780334 21.52155273 11.37698364 20.53857422 C11.49160848 18.39512111 11.49160848 18.39512111 10.25 17.375 C8.77347336 17.27619203 7.29232764 17.24420755 5.8125 17.2421875 C4.91789062 17.24089844 4.02328125 17.23960937 3.1015625 17.23828125 C1.69003906 17.24408203 1.69003906 17.24408203 0.25 17.25 C-0.69101563 17.24613281 -1.63203125 17.24226563 -2.6015625 17.23828125 C-3.94347656 17.24021484 -3.94347656 17.24021484 -5.3125 17.2421875 C-6.55193359 17.24387939 -6.55193359 17.24387939 -7.81640625 17.24560547 C-9.75679039 17.16235193 -9.75679039 17.16235193 -10.75 18.375 Z M117.25 19.375 C116.95069993 21.66538459 116.95069993 21.66538459 117.00708008 24.34375 C117.00400345 25.37822266 117.00092682 26.41269531 116.99775696 27.47851562 C117.00494247 28.59935547 117.01212799 29.72019531 117.01953125 30.875 C117.01998947 32.02162109 117.02044769 33.16824219 117.0209198 34.34960938 C117.02394498 36.77735426 117.03183916 39.20509715 117.04418945 41.6328125 C117.06242389 45.35944456 117.06469934 49.08582803 117.06445312 52.8125 C117.06936899 55.16666883 117.07519761 57.52083596 117.08203125 59.875 C117.08314407 60.99583984 117.0842569 62.11667969 117.08540344 63.27148438 C117.09178329 64.30595703 117.09816315 65.34042969 117.10473633 66.40625 C117.10854813 67.31955078 117.11235992 68.23285156 117.11628723 69.17382812 C117.10822901 71.41825609 117.10822901 71.41825609 118.25 73.375 C121.54150125 73.46185287 124.8327096 73.51533895 128.125 73.5625 C129.53072266 73.60020508 129.53072266 73.60020508 130.96484375 73.63867188 C131.86074219 73.64833984 132.75664062 73.65800781 133.6796875 73.66796875 C134.92081299 73.69153442 134.92081299 73.69153442 136.18701172 73.71557617 C136.86779785 73.60318604 137.54858398 73.4907959 138.25 73.375 C140.41206172 70.13190742 140.5019609 69.23644257 140.50878906 65.4921875 C140.51509338 64.50105957 140.52139771 63.50993164 140.52789307 62.48876953 C140.5238446 61.41997559 140.51979614 60.35118164 140.515625 59.25 C140.51753845 58.15155762 140.5194519 57.05311523 140.52142334 55.92138672 C140.5227849 53.59797944 140.51909048 51.27456455 140.51074219 48.95117188 C140.5000425 45.38914955 140.51063869 41.82763159 140.5234375 38.265625 C140.5221159 36.01041555 140.5195535 33.75520642 140.515625 31.5 C140.51967346 30.43120605 140.52372192 29.36241211 140.52789307 28.26123047 C140.52158875 27.27010254 140.51528442 26.27897461 140.50878906 25.2578125 C140.50719788 24.38527832 140.50560669 23.51274414 140.50396729 22.61376953 C140.39056695 20.09035716 140.39056695 20.09035716 138.25 17.375 C136.25638526 16.92783361 136.25638526 16.92783361 133.96875 17.01171875 C132.70611328 17.01268555 132.70611328 17.01268555 131.41796875 17.01367188 C130.53753906 17.02978516 129.65710938 17.04589844 128.75 17.0625 C127.86957031 17.05927734 126.98914063 17.05605469 126.08203125 17.05273438 C121.14751054 16.81650604 121.14751054 16.81650604 117.25 19.375 Z M28.25 38.375 C28.25 43.325 28.25 48.275 28.25 53.375 C52.01 53.375 75.77 53.375 100.25 53.375 C100.25 48.425 100.25 43.475 100.25 38.375 C76.49 38.375 52.73 38.375 28.25 38.375 Z " fill="#000000" transform="translate(193.75,400.625)"/>
<path d="M0 0 C8.1640268 6.56262154 14.3781765 16.05688126 15.90625 26.5078125 C17.30098643 42.49304165 14.00846841 53.23561226 4.90625 66.5078125 C4.24625 67.4978125 3.58625 68.4878125 2.90625 69.5078125 C3.63328125 69.89710938 4.3603125 70.28640625 5.109375 70.6875 C24.27935759 81.35387493 37.42484196 96.56727503 44.8828125 117.2109375 C46.58333853 123.6956101 46.28803339 130.29732544 43.21875 136.3203125 C38.53486034 142.77648473 32.62888589 144.81592493 25.0062561 146.22260284 C16.64863391 147.35768266 8.03860456 146.93285615 -0.375 146.90625 C-2.638388 146.90827461 -4.90177535 146.91118927 -7.16516113 146.91494751 C-11.89223485 146.9193526 -16.61913767 146.91299842 -21.34619141 146.89892578 C-27.37804013 146.88183522 -33.40948826 146.89168615 -39.44132233 146.90964317 C-44.11015797 146.92053013 -48.77890005 146.91701218 -53.44773865 146.9092598 C-55.67069039 146.90727135 -57.89365089 146.9096689 -60.11659241 146.91669846 C-89.8026851 146.98999302 -89.8026851 146.98999302 -98.09375 139.5078125 C-102.44501933 134.61118408 -103.91290629 130.08200079 -103.5703125 123.5546875 C-100.63662796 104.7983437 -88.44487572 88.71575881 -73.734375 77.3359375 C-69.39694064 74.33309833 -64.80371385 71.87174873 -60.09375 69.5078125 C-60.45726562 69.06953125 -60.82078125 68.63125 -61.1953125 68.1796875 C-69.98986938 57.08501575 -75.45061162 44.80704648 -74.09375 30.5078125 C-71.69290004 16.96141091 -66.39636515 7.05669948 -55.44921875 -1.578125 C-37.92763416 -13.45971455 -16.94729838 -12.0781119 0 0 Z M-51.09375 17.5078125 C-55.34892525 24.49293136 -58.08705277 31.21649351 -57.09375 39.5078125 C-54.83416738 48.16545245 -51.73023003 54.26619899 -44.15625 59.2578125 C-36.8138687 63.51010409 -30.12533996 64.52994436 -21.765625 63.11328125 C-14.02235766 61.01501825 -7.68732928 55.61492726 -3.59375 48.7578125 C-0.2792368 41.57636722 0.29743314 33.35998786 -1.89453125 25.71484375 C-5.32349222 18.11456944 -11.28572691 11.89970154 -18.96875 8.5078125 C-30.4421353 5.02482053 -43.32013713 8.17156499 -51.09375 17.5078125 Z M-72.09375 98.5078125 C-77.8305857 105.54725786 -83.6305082 113.67411778 -86.09375 122.5078125 C-85.78830628 125.24037099 -85.78830628 125.24037099 -85.09375 127.5078125 C-79.74992883 129.70696752 -75.02041132 129.79206487 -69.34399414 129.76660156 C-67.89651039 129.77185852 -67.89651039 129.77185852 -66.41978455 129.77722168 C-63.23941795 129.78600242 -60.059275 129.78020222 -56.87890625 129.7734375 C-54.66222593 129.77478531 -52.44554589 129.77672681 -50.22886658 129.77923584 C-45.58622418 129.78218225 -40.94365882 129.77790535 -36.30102539 129.76855469 C-30.35826761 129.75716717 -24.41569063 129.76371834 -18.47293949 129.77569962 C-13.8960993 129.7829369 -9.31930175 129.78062157 -4.74246025 129.77544403 C-2.55166032 129.77411236 -0.36085648 129.7757383 1.82993889 129.78040314 C4.89576299 129.78549828 7.96129703 129.77771573 11.02709961 129.76660156 C11.92758026 129.77065002 12.82806091 129.77469849 13.75582886 129.77886963 C18.82728569 129.74491622 23.16485528 129.39359086 27.90625 127.5078125 C29.67850445 122.19104916 26.24863016 117.34911803 23.90625 112.5078125 C15.75320209 97.43274618 3.42884824 86.99150672 -13.03125 81.98046875 C-34.76788087 76.99915751 -56.22856712 82.59505786 -72.09375 98.5078125 Z " fill="#000000" transform="translate(287.09375,187.4921875)"/>
<path d="M0 0 C0.82148529 -0.00571014 1.64297058 -0.01142029 2.48934937 -0.01730347 C3.38708069 -0.01842133 4.28481201 -0.01953918 5.20974731 -0.02069092 C6.15800385 -0.02565582 7.10626038 -0.03062073 8.08325195 -0.03573608 C11.22454551 -0.05035782 14.36578858 -0.05715944 17.5071106 -0.06268311 C19.68802899 -0.06843416 21.86894736 -0.0741919 24.04986572 -0.07995605 C28.62464636 -0.09046581 33.19940942 -0.09630877 37.77420044 -0.09979248 C43.63768943 -0.10527978 49.50094651 -0.1293131 55.36436272 -0.15776443 C59.86992066 -0.17638198 64.37542261 -0.18159593 68.88101578 -0.18312836 C71.04277948 -0.18615696 73.20454215 -0.19419247 75.36626816 -0.20731354 C78.38979533 -0.22435672 81.41275417 -0.22249798 84.43630981 -0.21600342 C85.32999268 -0.2252182 86.22367554 -0.23443298 87.1444397 -0.243927 C92.36765244 -0.20875835 96.07086536 0.25888416 99.9524231 4.14044189 C101.0581395 14.00788236 98.62518504 23.90452755 96.8117981 33.54669189 C96.48449255 35.32055064 96.15778219 37.0945193 95.83163452 38.86859131 C95.14861047 42.57126389 94.45858825 46.27254308 93.76345825 49.97296143 C92.87838861 54.68746969 92.01068667 59.40497594 91.14822006 64.12366486 C90.47737105 67.78321467 89.797361 71.44101745 89.11466217 75.09837341 C88.79139965 76.83598304 88.47087484 78.57410453 88.15328217 80.3127594 C83.61399003 105.08247147 83.61399003 105.08247147 78.2649231 110.20294189 C71.42507025 114.20361054 63.97129863 114.44333169 56.2024231 114.40606689 C55.3042688 114.40798035 54.4061145 114.4098938 53.48074341 114.41186523 C51.59499834 114.41321711 49.70924365 114.40959096 47.82351685 114.40118408 C44.96002012 114.39047032 42.09715064 114.40111355 39.2336731 114.41387939 C37.38992173 114.41255762 35.54617075 114.40999486 33.7024231 114.40606689 C32.85840942 114.41011536 32.01439575 114.41416382 31.14480591 114.41833496 C23.94838343 114.36240329 15.69448369 114.08422771 10.21029663 108.83441162 C3.99270539 100.46122382 3.10881029 87.74297752 1.2805481 77.73419189 C0.95050303 75.96012456 0.61990605 74.18615983 0.28878784 72.41229248 C-0.39967172 68.71194839 -1.08129408 65.01042858 -1.75802612 61.30792236 C-2.62122361 56.58847838 -3.50178569 51.87247209 -4.38755417 47.15721893 C-5.0724491 43.50030206 -5.74789319 39.84168689 -6.42060089 36.18251038 C-6.74141465 34.44383437 -7.06511807 32.70568874 -7.39189911 30.96812439 C-11.26263551 10.32181583 -11.26263551 10.32181583 -10.0475769 4.14044189 C-7.30777493 0.61224461 -4.30430809 0.01794701 0 0 Z M7.9524231 17.14044189 C8.9424231 22.09044189 9.9324231 27.04044189 10.9524231 32.14044189 C13.3242981 31.93419189 15.6961731 31.72794189 18.1399231 31.51544189 C30.41691559 30.68586495 41.12095399 33.21736998 52.71121216 37.10748291 C60.68960593 39.68858733 68.18081637 40.2386802 76.1399231 37.22637939 C78.26519743 36.17661601 78.26519743 36.17661601 79.3899231 33.20294189 C79.6683606 31.19200439 79.6683606 31.19200439 79.9524231 29.14044189 C80.6124231 25.18044189 81.2724231 21.22044189 81.9524231 17.14044189 C57.5324231 17.14044189 33.1124231 17.14044189 7.9524231 17.14044189 Z M13.9524231 48.14044189 C15.23638456 57.71445162 16.78138108 67.21029387 18.55691528 76.70367432 C18.95894678 78.8629805 19.35024578 81.02407933 19.7414856 83.18536377 C19.99865005 84.57024989 20.25643839 85.95502034 20.5149231 87.33966064 C20.74308716 88.57546875 20.97125122 89.81127686 21.20632935 91.08453369 C21.80413415 94.2879942 21.80413415 94.2879942 23.9524231 97.14044189 C25.82747597 97.59644465 25.82747597 97.59644465 28.00320435 97.52862549 C29.25460205 97.54281021 29.25460205 97.54281021 30.53128052 97.55728149 C31.43338257 97.5512088 32.33548462 97.54513611 33.2649231 97.53887939 C34.18958374 97.54174957 35.11424438 97.54461975 36.06692505 97.5475769 C38.02388114 97.54962039 39.98085752 97.54407072 41.93777466 97.53155518 C44.94051603 97.51550554 47.9419113 97.53139426 50.9446106 97.55059814 C52.84305108 97.54861576 54.74149072 97.54477219 56.6399231 97.53887939 C57.99307617 97.54798843 57.99307617 97.54798843 59.37356567 97.55728149 C60.20783081 97.54782501 61.04209595 97.53836853 61.90164185 97.52862549 C62.6372937 97.52623871 63.37294556 97.52385193 64.13088989 97.52139282 C66.3685783 97.27549362 66.3685783 97.27549362 67.9524231 94.14044189 C68.60372119 91.3653854 69.17108498 88.62533373 69.6789856 85.82403564 C69.90779922 84.60563744 69.90779922 84.60563744 70.14123535 83.36262512 C70.46205095 81.64764294 70.77956952 79.93204116 71.09402466 78.21588135 C71.57644207 75.58329544 72.06819356 72.95259153 72.5617981 70.32208252 C72.87223709 68.65616802 73.18215093 66.99015555 73.4914856 65.32403564 C73.63832794 64.53443954 73.78517029 63.74484344 73.9364624 62.93132019 C74.68297977 59.06131857 74.68297977 59.06131857 74.9524231 55.14044189 C73.4983606 55.21005127 73.4983606 55.21005127 72.0149231 55.28106689 C60.0102703 55.67250654 49.54228592 53.609926 38.2649231 49.45294189 C30.36273724 46.67731807 22.11298989 46.90132076 13.9524231 48.14044189 Z " fill="#000000" transform="translate(211.04757690429688,20.85955810546875)"/>
<path d="M0 0 C3.20779512 2.19480719 3.88787953 3.41697353 4.625 7.25 C3.88695856 11.67824865 2.33409997 13.55236386 -0.46484375 16.93359375 C-2.79577413 20.07115653 -3.80944004 23.29603567 -5 27 C-3.96552734 26.85691406 -3.96552734 26.85691406 -2.91015625 26.7109375 C4.84851122 25.79564888 11.03216073 25.97559221 18.0625 29.5625 C28.78387415 38.4589594 33.4664445 48.25479887 35 62 C36.29648021 78.51306366 31.83135753 93.88094993 22.34375 107.3515625 C17.10298795 113.18319479 8.67803279 117.52763487 1 119 C-1.50147819 119.11797739 -3.97453635 119.18775213 -6.4765625 119.203125 C-7.564496 119.21167511 -7.564496 119.21167511 -8.67440796 119.22039795 C-10.20919344 119.22982809 -11.74399899 119.23637403 -13.27880859 119.24023438 C-15.59640207 119.24988097 -17.91308538 119.28089707 -20.23046875 119.3125 C-33.60040918 119.40934511 -42.96701776 117.62365831 -52.83984375 108.25390625 C-63.82374001 96.69317518 -67.51692328 81.50503891 -67.35375977 65.90698242 C-67.00394908 55.66537204 -64.75522921 46.52050451 -59 38 C-58.278125 36.9275 -57.55625 35.855 -56.8125 34.75 C-51.11154471 29.17573261 -44.40531378 26.38210365 -36.46484375 25.91796875 C-31.80323348 26.0731095 -27.18975847 26.90512077 -23 29 C-22.9175 27.72125 -22.835 26.4425 -22.75 25.125 C-21.77536903 16.51575977 -18.22148325 7.24092302 -11.3359375 1.6484375 C-7.29573098 -0.96790769 -4.53045787 -1.61082946 0 0 Z M-43 46 C-49.07436491 51.72725834 -50.17915252 59.81263679 -50.4375 67.8125 C-50.16901572 78.55187109 -47.16479641 88.80913398 -40 97 C-34.77947406 101.53793902 -29.73935027 102.31481394 -23 102 C-20.68525186 101.74575717 -18.38244336 101.45679481 -16.078125 101.12109375 C-13.81722637 100.98934966 -12.17274182 101.40195819 -10 102 C-2.93883245 102.46302738 1.99897383 101.50085514 7.625 96.8125 C15.3508534 87.66346307 18.68790569 77.41669663 18.21875 65.3359375 C17.52474967 57.9250054 15.7507123 51.87847783 11 46 C6.93487338 43.28991559 3.77536813 43.35196943 -1 44 C-5.02654355 45.47431301 -8.44428916 47.62952611 -12 50 C-18.7685709 50.9669387 -22.55718477 48.96526517 -28.2890625 45.41015625 C-33.94287608 42.46919558 -37.66658877 42.52168833 -43 46 Z " fill="#000000" transform="translate(452,182)"/>
<path d="M0 0 C2.52495401 0.98646213 2.52495401 0.98646213 5.04296875 -0.140625 C5.87699219 -0.61886719 6.71101563 -1.09710938 7.5703125 -1.58984375 C15.73891089 -6.18389369 24.3038794 -6.46824141 33.51953125 -4.69921875 C42.04631079 -2.02319664 48.696516 3.22001063 53.4296875 10.80078125 C59.31507236 22.17919198 60.07245928 33.26872033 56.609375 45.6484375 C53.08208371 55.49233199 47.47503917 63.99558103 40.5078125 71.72265625 C40.06759766 72.2120166 39.62738281 72.70137695 39.17382812 73.20556641 C29.94917687 83.30800678 15.94937563 98.07398839 1.9453125 100.28515625 C-4.21824879 100.0808393 -8.6927859 96.25000134 -13.4921875 92.72265625 C-14.04213379 92.32079102 -14.59208008 91.91892578 -15.15869141 91.50488281 C-33.44654096 78.01765836 -50.89734136 61.26560912 -55.20703125 37.91796875 C-56.56503746 27.46318121 -54.88023014 16.95795257 -48.6171875 8.22265625 C-35.66137499 -7.19476064 -17.53143046 -8.98554508 0 0 Z M-34.0703125 17.62890625 C-37.60212889 23.0687154 -39.31498064 28.17557369 -38.4921875 34.72265625 C-36.48926385 43.2773121 -32.9994929 49.93458216 -27.4921875 56.72265625 C-26.80640625 57.58375 -26.120625 58.44484375 -25.4140625 59.33203125 C-18.34932846 67.64631009 -8.02110474 78.21301717 2.5078125 81.72265625 C4.63913464 80.3855966 6.49877541 79.0455635 8.4453125 77.47265625 C9.01797852 77.01810059 9.59064453 76.56354492 10.18066406 76.09521484 C11.97217171 74.65580394 13.74343989 73.19517406 15.5078125 71.72265625 C16.04744629 71.27245117 16.58708008 70.82224609 17.14306641 70.35839844 C28.22500016 60.97369778 40.24896525 48.81950941 41.7109375 33.609375 C41.85076925 27.04893542 40.3132622 22.55979149 36.7578125 16.97265625 C32.85712137 13.07196512 28.98588248 11.88688625 23.5703125 11.28515625 C17.55109997 11.54129295 12.79402196 14.40654944 8.5078125 18.47265625 C5.43692871 20.77581909 3.52127849 21.57759682 -0.34375 21.35546875 C-3.97817607 20.28496507 -6.5206028 17.93324156 -9.31640625 15.44921875 C-13.34027101 12.25613397 -17.22990905 11.24322981 -22.375 11.41796875 C-27.13943891 12.10362601 -30.97726794 13.89275342 -34.0703125 17.62890625 Z " fill="#000000" transform="translate(80.4921875,207.27734375)"/>
<path d="M0 0 C2.74874122 1.16130251 5.15118432 2.71644328 7.625 4.375 C8.32085205 4.82762207 9.0167041 5.28024414 9.73364258 5.74658203 C20.89527973 13.10778053 30.94975788 21.42896825 40.60302734 30.66601562 C41.79431246 31.80358673 42.99929764 32.92678224 44.20703125 34.046875 C56.94210092 46.18539355 67.13912673 61.64131234 75.5625 77 C75.89725342 77.59868896 76.23200684 78.19737793 76.5769043 78.81420898 C78.71991521 82.85584742 79.69207576 86.44162151 80 91 C78.64341319 94.59096508 77.60985739 95.68829511 74.1875 97.4375 C70.17828001 98.14500941 68.6372518 97.86642458 65 96 C62.89575356 93.18227825 61.42271098 90.08653242 59.875 86.9375 C51.48136027 70.83423262 41.2286985 57.21336312 28.39453125 44.3984375 C27.00288038 43.0045164 25.62582949 41.59507574 24.2890625 40.1484375 C15.43939548 30.71710223 4.26316317 23.56277583 -6.69580078 16.81665039 C-10.89827107 14.20345787 -10.89827107 14.20345787 -12 12 C-12.49055907 7.66672826 -12.47744439 5.67999656 -9.9375 2.0625 C-6.19019414 -0.5685871 -4.52434434 -0.4799253 0 0 Z " fill="#000000" transform="translate(350,77)"/>
<path d="M0 0 C3.41639845 1.9739191 4.72268412 3.18538459 6 6.9375 C6 10.79836333 5.3445756 11.92190075 3 15 C0.27600719 17.14477882 -2.6296163 18.96821657 -5.5625 20.8125 C-7.20392421 21.87697512 -8.8432657 22.94466894 -10.48046875 24.015625 C-11.26599121 24.52931641 -12.05151367 25.04300781 -12.86083984 25.57226562 C-38.1940642 42.48035693 -56.08477395 66.53571242 -69.95361328 93.20678711 C-71.4221439 95.72343605 -72.52111298 96.84468529 -75.3125 97.75 C-79.20663646 98.11224525 -81.55790439 96.89509383 -84.8125 94.875 C-86.78559736 91.75958312 -86.52037936 88.52548646 -86 85 C-84.70558567 81.59326622 -82.95997868 78.51759119 -81.125 75.375 C-80.62758301 74.49980713 -80.13016602 73.62461426 -79.61767578 72.72290039 C-75.21603244 65.10553062 -70.36210935 57.96631066 -65 51 C-64.35417969 50.13117188 -63.70835938 49.26234375 -63.04296875 48.3671875 C-51.14151184 33.01501231 -21.71539159 -2.12895996 0 0 Z " fill="#000000" transform="translate(173,77)"/>
<path d="M0 0 C3.21262414 3.46410157 5.37822703 7.30248166 7.625 11.4375 C14.61182254 23.92733541 23.06873558 34.73350303 33 45 C33.88558594 45.93714844 34.77117187 46.87429688 35.68359375 47.83984375 C41.04973467 53.39290395 46.63768796 58.2672295 52.84912109 62.82861328 C56.90895724 65.81791447 56.90895724 65.81791447 58 68 C58.49055907 72.33327174 58.47744439 74.32000344 55.9375 77.9375 C52.21824132 80.54889439 50.48032101 80.47783783 46 80 C42.9296875 78.234375 42.9296875 78.234375 39.875 75.75 C39.04476318 75.07880127 39.04476318 75.07880127 38.19775391 74.39404297 C19.09829526 58.73583104 3.19801247 40.72153771 -9.3125 19.375 C-9.69164551 18.74883789 -10.07079102 18.12267578 -10.46142578 17.47753906 C-13.14688421 12.69402632 -13.45121367 9.32996148 -13 4 C-9.95832051 -1.64883333 -5.82508312 -1.43072217 0 0 Z " fill="#000000" transform="translate(103,316)"/>
<path d="M0 0 C2.78007242 2.49493678 3.87296598 3.98810833 4.33984375 7.70703125 C3.90652194 11.9057702 2.2385325 14.93777351 0.125 18.5 C-0.48021484 19.54450317 -0.48021484 19.54450317 -1.09765625 20.61010742 C-5.29788947 27.728695 -10.00387847 34.42300998 -15 41 C-15.66 41.88558594 -16.32 42.77117187 -17 43.68359375 C-26.66260289 56.08267598 -39.77065202 71.8957124 -54 79 C-58.44685941 79.41421496 -60.24220424 79.53206936 -63.9375 76.9375 C-66 74 -66 74 -66.625 70.5 C-65.44937324 63.91649014 -58.61688159 59.88786241 -53.6875 55.6875 C-37.66508613 41.86170739 -24.08961166 25.62959691 -14.1875 6.8125 C-10.71357523 0.40934249 -7.42172107 -2.29398651 0 0 Z " fill="#000000" transform="translate(423,316)"/>
</svg>
